<mxfile host="app.diagrams.net" modified="2023-11-19T09:57:38.664Z" agent="Mozilla/5.0 (Macintosh; Intel Mac OS X 10_15_7) AppleWebKit/605.1.15 (KHTML, like Gecko) Version/16.5 Safari/605.1.15" etag="OZZH4Ead9ARDZ-THar8K" version="22.1.3" type="github">
  <diagram name="Page-1" id="JLkYXuvj8Jl2C8QypBiZ">
    <mxGraphModel dx="1363" dy="924" grid="1" gridSize="10" guides="1" tooltips="1" connect="1" arrows="1" fold="1" page="1" pageScale="1" pageWidth="850" pageHeight="1100" math="0" shadow="0">
      <root>
        <mxCell id="0" />
        <mxCell id="1" parent="0" />
        <mxCell id="Z81On6WFfKlY1YdTTwCn-7" value="Control layer" style="rounded=0;whiteSpace=wrap;html=1;horizontal=0;align=center;verticalAlign=top;dashed=1;dashPattern=12 12;" vertex="1" parent="1">
          <mxGeometry x="170" y="169" width="541" height="90" as="geometry" />
        </mxCell>
        <mxCell id="Z81On6WFfKlY1YdTTwCn-1" value="create_user()" style="rounded=0;whiteSpace=wrap;html=1;" vertex="1" parent="1">
          <mxGeometry x="340" y="60" width="160" height="60" as="geometry" />
        </mxCell>
        <mxCell id="Z81On6WFfKlY1YdTTwCn-2" value="@user_router.post(&quot;/sign-up&quot;)" style="text;html=1;align=center;verticalAlign=middle;resizable=0;points=[];autosize=1;strokeColor=none;fillColor=none;" vertex="1" parent="1">
          <mxGeometry x="320" y="30" width="180" height="30" as="geometry" />
        </mxCell>
        <mxCell id="Z81On6WFfKlY1YdTTwCn-8" style="edgeStyle=orthogonalEdgeStyle;rounded=0;orthogonalLoop=1;jettySize=auto;html=1;exitX=0.5;exitY=0;exitDx=0;exitDy=0;entryX=0.25;entryY=1;entryDx=0;entryDy=0;" edge="1" parent="1" source="Z81On6WFfKlY1YdTTwCn-3" target="Z81On6WFfKlY1YdTTwCn-1">
          <mxGeometry relative="1" as="geometry" />
        </mxCell>
        <mxCell id="Z81On6WFfKlY1YdTTwCn-3" value="await user.create_user()" style="rounded=0;whiteSpace=wrap;html=1;" vertex="1" parent="1">
          <mxGeometry x="210" y="180" width="115" height="60" as="geometry" />
        </mxCell>
        <mxCell id="Z81On6WFfKlY1YdTTwCn-9" style="edgeStyle=orthogonalEdgeStyle;rounded=0;orthogonalLoop=1;jettySize=auto;html=1;exitX=0.5;exitY=0;exitDx=0;exitDy=0;entryX=0.5;entryY=1;entryDx=0;entryDy=0;" edge="1" parent="1" source="Z81On6WFfKlY1YdTTwCn-4" target="Z81On6WFfKlY1YdTTwCn-1">
          <mxGeometry relative="1" as="geometry" />
        </mxCell>
        <mxCell id="Z81On6WFfKlY1YdTTwCn-4" value="await calendar.calendar_create ()" style="rounded=0;whiteSpace=wrap;html=1;" vertex="1" parent="1">
          <mxGeometry x="340" y="180" width="160" height="60" as="geometry" />
        </mxCell>
        <mxCell id="Z81On6WFfKlY1YdTTwCn-10" style="edgeStyle=orthogonalEdgeStyle;rounded=0;orthogonalLoop=1;jettySize=auto;html=1;exitX=0.5;exitY=0;exitDx=0;exitDy=0;entryX=0.75;entryY=1;entryDx=0;entryDy=0;" edge="1" parent="1" source="Z81On6WFfKlY1YdTTwCn-5" target="Z81On6WFfKlY1YdTTwCn-1">
          <mxGeometry relative="1" as="geometry" />
        </mxCell>
        <mxCell id="Z81On6WFfKlY1YdTTwCn-5" value="await s3_work.create_structure()" style="rounded=0;whiteSpace=wrap;html=1;" vertex="1" parent="1">
          <mxGeometry x="520" y="180" width="160" height="60" as="geometry" />
        </mxCell>
      </root>
    </mxGraphModel>
  </diagram>
</mxfile>
